<svg xmlns="http://www.w3.org/2000/svg" viewBox="0 0 1200 640" role="img" aria-label="Evals-101 doodle">
  <defs>
    <filter id="shadow" x="-20%" y="-20%" width="140%" height="140%">
      <feDropShadow dx="0" dy="8" stdDeviation="12" flood-color="#0f172a" flood-opacity="0.10"/>
    </filter>
  </defs>

  <rect width="1200" height="640" fill="#f8fafc"/>
  <text x="600" y="74" text-anchor="middle" font-family="Inter, Arial, Helvetica, sans-serif" font-size="46" font-weight="700" fill="#0f172a">evals-101: Live MCP-201 Evaluation</text>

  <g filter="url(#shadow)">
    <rect x="62" y="138" width="404" height="312" rx="24" fill="#ffffff" stroke="#0f172a" stroke-width="3"/>
    <rect x="520" y="216" width="170" height="174" rx="24" fill="#ffffff" stroke="#0f172a" stroke-width="3"/>
    <rect x="744" y="138" width="392" height="312" rx="24" fill="#ffffff" stroke="#0f172a" stroke-width="3"/>
  </g>

  <g stroke="#0f172a" stroke-width="3" fill="none" stroke-linecap="round" stroke-linejoin="round">
    <line x1="62" y1="182" x2="466" y2="182"/>
    <circle cx="92" cy="160" r="7"/>
    <circle cx="118" cy="160" r="7"/>
    <circle cx="144" cy="160" r="7"/>
    <rect x="190" y="151" width="220" height="18" rx="9"/>

    <rect x="98" y="210" width="248" height="102" rx="14" fill="#f8fafc"/>
    <rect x="108" y="342" width="96" height="82" rx="14" fill="#eef2ff"/>
    <rect x="222" y="342" width="96" height="82" rx="14" fill="#eef2ff"/>
    <rect x="336" y="342" width="96" height="82" rx="14" fill="#eef2ff"/>

    <rect x="545" y="240" width="120" height="36" rx="18" fill="#eef2ff"/>
    <rect x="536" y="332" width="138" height="36" rx="18" fill="#ecfeff"/>

    <rect x="790" y="248" width="126" height="132" rx="16" fill="#f8fafc"/>
    <rect x="960" y="248" width="126" height="132" rx="16" fill="#fff7ed"/>

    <path d="M432 294 H500"/>
    <path d="M489 281 L511 294 L489 307"/>
    <path d="M690 294 H724"/>
    <path d="M713 281 L735 294 L713 307"/>
    <path d="M918 314 H958"/>
    <path d="M947 301 L969 314 L947 327"/>

    <rect x="808" y="470" width="96" height="40" rx="12" fill="#ffffff"/>
    <rect x="982" y="470" width="88" height="40" rx="12" fill="#ffffff"/>
  </g>

  <g font-family="Inter, Arial, Helvetica, sans-serif" fill="#0f172a">
    <text x="112" y="246" font-size="24" font-weight="600">"Run gate and nightly</text>
    <text x="112" y="278" font-size="24" font-weight="600">checks on mcp-201"</text>

    <text x="154" y="388" text-anchor="middle" font-size="14" fill="#475569">gate</text>
    <text x="268" y="388" text-anchor="middle" font-size="14" fill="#475569">nightly</text>
    <text x="382" y="388" text-anchor="middle" font-size="14" fill="#475569">api</text>

    <text x="605" y="300" text-anchor="middle" font-size="30" font-weight="700">mcp-201</text>
    <text x="605" y="266" text-anchor="middle" font-size="17" font-weight="600">live target</text>
    <text x="605" y="355" text-anchor="middle" font-size="16" font-weight="600">trace + auth</text>

    <text x="856" y="494" text-anchor="middle" font-size="20" font-weight="600">report</text>
    <text x="1026" y="494" text-anchor="middle" font-size="20" font-weight="600">result</text>

    <text x="548" y="264" font-size="14" font-weight="600">call /mcp</text>
    <text x="548" y="356" font-size="14" font-weight="600">save JSON</text>
  </g>

  <g stroke="#334155" stroke-width="3" fill="none" stroke-linecap="round" stroke-linejoin="round">
    <circle cx="156" cy="374" r="24"/>
    <path d="M142 372 q14 -10 28 0"/>
    <path d="M145 388 q11 8 22 0"/>
    <path d="M156 399 v14"/>
    <path d="M143 424 l13 -8 13 8"/>

    <circle cx="270" cy="374" r="24"/>
    <path d="M256 372 q14 -10 28 0"/>
    <path d="M259 388 q11 8 22 0"/>
    <path d="M270 399 v14"/>
    <path d="M257 424 l13 -8 13 8"/>

    <circle cx="384" cy="374" r="24"/>
    <path d="M370 372 q14 -10 28 0"/>
    <path d="M373 388 q11 8 22 0"/>
    <path d="M384 399 v14"/>
    <path d="M371 424 l13 -8 13 8"/>

    <circle cx="853" cy="304" r="34"/>
    <path d="M834 300 q19 -14 38 0"/>
    <path d="M839 320 q14 10 28 0"/>
    <path d="M853 338 v20"/>
    <path d="M835 380 l18 -10 18 10"/>

    <rect x="996" y="270" width="54" height="64" rx="8" fill="#ffffff"/>
    <line x1="1008" y1="290" x2="1038" y2="290"/>
    <line x1="1008" y1="306" x2="1038" y2="306"/>
    <line x1="1008" y1="322" x2="1030" y2="322"/>
    <path d="M986 358 q24 -20 48 0"/>
  </g>

  <g stroke="#94a3b8" stroke-width="3" fill="none" stroke-linecap="round">
    <path d="M1088 222 l8 -16"/>
    <path d="M1098 228 l16 -8"/>
    <path d="M956 214 l6 -14"/>
    <path d="M964 220 l14 -6"/>
    <path d="M1102 354 l6 -12"/>
    <path d="M1110 360 l12 -6"/>
  </g>
</svg>
